<svg xmlns="http://www.w3.org/2000/svg" viewBox="0 0 220 48" fill="none" role="img" aria-label="WMS 3PL">
  <!-- icon: warehouse + bins + transfer -->
  <g transform="translate(0, 4)">
    <rect width="40" height="40" rx="8" fill="#1a3a5c" stroke="#2a3f5f" stroke-width="1"/>
    <path d="M6 18L20 8l14 10v3H6v-3z" fill="#4a90d9"/>
    <rect x="10" y="22" width="8" height="7" rx="1.5" fill="#7eb8ff"/>
    <rect x="22" y="22" width="8" height="7" rx="1.5" fill="#2a9d5c"/>
    <rect x="10" y="31" width="8" height="5" rx="1.5" fill="#3d6a9e"/>
    <rect x="22" y="31" width="8" height="5" rx="1.5" fill="#3d6a9e"/>
    <path d="M17.5 25.5h5M20 23.5v4" stroke="#e7ecf3" stroke-width="1.4" stroke-linecap="round"/>
    <path d="M22 23.5l2 2-2 2" stroke="#e7ecf3" stroke-width="1.4" stroke-linecap="round" stroke-linejoin="round"/>
  </g>
  <!-- wordmark -->
  <text x="52" y="22" font-family="Segoe UI, system-ui, sans-serif" font-size="18" font-weight="700" fill="#e7ecf3">WMS</text>
  <text x="52" y="38" font-family="Segoe UI, system-ui, sans-serif" font-size="13" font-weight="600" fill="#7eb8ff" letter-spacing="0.08em">3PL · WAREHOUSE</text>
  <!-- pallet stack accent -->
  <rect x="178" y="14" width="10" height="4" rx="1" fill="#4a90d9" opacity=".8"/>
  <rect x="176" y="20" width="14" height="4" rx="1" fill="#7eb8ff" opacity=".7"/>
  <rect x="174" y="26" width="18" height="4" rx="1" fill="#2a9d5c" opacity=".8"/>
</svg>
